# xmcd
#
# Track frame offsets:
#	150
#	17637
#	42472
#
# Disc length: 1143 seconds
#
# Revision: 0
# Processed by: cddbd v1.4PL0 Copyright (c) Steve Scherf et al.
# Submitted via: dBpowerAMP V4.0
#
DISCID=1d047503
DTITLE=Jonny Lang - Breakin' Me
DYEAR=1999
DGENRE=Blues
TTITLE0=Breakin' Me (Edit)
TTITLE1=If This Is Love
TTITLE2=DATA
EXTD=A and M Records Enhanced CD Video\nSKU # 06949-72452
EXTT0=
EXTT1=
EXTT2=
PLAYORDER=
